<svg width="1342" height="850" viewBox="0 0 1342 850" fill="none" xmlns="http://www.w3.org/2000/svg"
    preserveAspectRatio="xMaxYMin slice">
    <g id="Group 305" class="home-container">
        <g id="Group 8" class="star">
            <path id="Vector 4" d="M108.832 431.667V472.761" stroke="white" stroke-width="2" />
            <path id="Vector 5" d="M129.38 452.214L88.2849 452.214" stroke="white" stroke-width="2" />
            <path id="Vector 6" d="M123.362 466.743L94.3032 437.685" stroke="white" stroke-width="2" />
            <path id="Vector 7" d="M123.362 437.685L94.3032 466.743" stroke="white" stroke-width="2" />
            <path id="Vector 8" d="M126.627 441.94L91.0376 462.488" stroke="white" stroke-width="2" />
            <path id="Vector 9" d="M126.627 462.488L91.0376 441.941" stroke="white" stroke-width="2" />
            <path id="Vector 10" d="M116.976 471.079L100.688 433.35" stroke="white" stroke-width="2" />
            <path id="Vector 11" d="M102.284 471.69L115.381 432.739" stroke="white" stroke-width="2" />
        </g>
        <g id="Group 9" class="star">
            <path id="Vector 4_2" d="M344.244 129.987V171.082" stroke="white" stroke-width="2" />
            <path id="Vector 5_2" d="M364.791 150.535L323.696 150.535" stroke="white" stroke-width="2" />
            <path id="Vector 6_2" d="M358.773 165.064L329.715 136.006" stroke="white" stroke-width="2" />
            <path id="Vector 7_2" d="M358.773 136.006L329.715 165.064" stroke="white" stroke-width="2" />
            <path id="Vector 8_2" d="M362.038 140.261L326.449 160.809" stroke="white" stroke-width="2" />
            <path id="Vector 9_2" d="M362.038 160.809L326.449 140.261" stroke="white" stroke-width="2" />
            <path id="Vector 10_2" d="M352.388 169.4L336.1 131.671" stroke="white" stroke-width="2" />
            <path id="Vector 11_2" d="M337.695 170.011L350.792 131.059" stroke="white" stroke-width="2" />
        </g>
        <g id="Group 10" class="star">
            <path id="Vector 4_3" d="M55.0239 195.006V236.101" stroke="white" stroke-width="2" />
            <path id="Vector 5_3" d="M75.5713 215.553L34.4766 215.553" stroke="white" stroke-width="2" />
            <path id="Vector 6_3" d="M69.5532 230.083L40.4949 201.024" stroke="white" stroke-width="2" />
            <path id="Vector 7_3" d="M69.5532 201.024L40.4949 230.083" stroke="white" stroke-width="2" />
            <path id="Vector 8_3" d="M72.8184 205.28L37.2293 225.827" stroke="white" stroke-width="2" />
            <path id="Vector 9_3" d="M72.8184 225.827L37.2293 205.28" stroke="white" stroke-width="2" />
            <path id="Vector 10_3" d="M63.168 234.418L46.8799 196.689" stroke="white" stroke-width="2" />
            <path id="Vector 11_3" d="M48.4756 235.03L61.5724 196.078" stroke="white" stroke-width="2" />
        </g>
        <g id="Group 13" class="star">
            <path id="Vector 4_4" d="M613.285 16.2285V57.3232" stroke="white" stroke-width="2" />
            <path id="Vector 5_4" d="M633.833 36.776L592.738 36.776" stroke="white" stroke-width="2" />
            <path id="Vector 6_4" d="M627.815 51.3053L598.756 22.2469" stroke="white" stroke-width="2" />
            <path id="Vector 7_4" d="M627.815 22.2469L598.756 51.3053" stroke="white" stroke-width="2" />
            <path id="Vector 8_4" d="M631.08 26.5025L595.491 47.0499" stroke="white" stroke-width="2" />
            <path id="Vector 9_4" d="M631.08 47.05L595.491 26.5026" stroke="white" stroke-width="2" />
            <path id="Vector 10_4" d="M621.429 55.6409L605.141 17.9119" stroke="white" stroke-width="2" />
            <path id="Vector 11_4" d="M606.737 56.2524L619.834 17.3005" stroke="white" stroke-width="2" />
        </g>
        <g id="Group 14" class="star">
            <path id="Vector 4_5" d="M382.585 674.994V716.088" stroke="white" stroke-width="2" />
            <path id="Vector 5_5" d="M403.133 695.541L362.038 695.541" stroke="white" stroke-width="2" />
            <path id="Vector 6_5" d="M397.115 710.07L368.056 681.012" stroke="white" stroke-width="2" />
            <path id="Vector 7_5" d="M397.115 681.012L368.056 710.07" stroke="white" stroke-width="2" />
            <path id="Vector 8_5" d="M400.38 685.268L364.791 705.815" stroke="white" stroke-width="2" />
            <path id="Vector 9_5" d="M400.38 705.815L364.791 685.268" stroke="white" stroke-width="2" />
            <path id="Vector 10_5" d="M390.729 714.406L374.441 676.677" stroke="white" stroke-width="2" />
            <path id="Vector 11_5" d="M376.037 715.018L389.134 676.066" stroke="white" stroke-width="2" />
        </g>
        <g id="Group 16" class="star">
            <path id="Vector 4_6" d="M936.59 710.07V751.165" stroke="white" stroke-width="2" />
            <path id="Vector 5_6" d="M957.137 730.618L916.042 730.618" stroke="white" stroke-width="2" />
            <path id="Vector 6_6" d="M951.119 745.147L922.061 716.089" stroke="white" stroke-width="2" />
            <path id="Vector 7_6" d="M951.119 716.089L922.061 745.147" stroke="white" stroke-width="2" />
            <path id="Vector 8_6" d="M954.384 720.344L918.795 740.892" stroke="white" stroke-width="2" />
            <path id="Vector 9_6" d="M954.384 740.892L918.795 720.344" stroke="white" stroke-width="2" />
            <path id="Vector 10_6" d="M944.734 749.483L928.446 711.754" stroke="white" stroke-width="2" />
            <path id="Vector 11_6" d="M930.042 750.094L943.138 711.142" stroke="white" stroke-width="2" />
        </g>
        <g id="Group 18" class="star">
            <path id="Vector 4_7" d="M907.898 0V41.0947" stroke="white" stroke-width="2" />
            <path id="Vector 5_7" d="M928.446 20.5475L887.351 20.5475" stroke="white" stroke-width="2" />
            <path id="Vector 6_7" d="M922.428 35.0768L893.369 6.01839" stroke="white" stroke-width="2" />
            <path id="Vector 7_7" d="M922.428 6.01843L893.369 35.0768" stroke="white" stroke-width="2" />
            <path id="Vector 8_7" d="M925.693 10.274L890.104 30.8213" stroke="white" stroke-width="2" />
            <path id="Vector 9_7" d="M925.693 30.8215L890.104 10.2741" stroke="white" stroke-width="2" />
            <path id="Vector 10_7" d="M916.042 39.4124L899.754 1.68339" stroke="white" stroke-width="2" />
            <path id="Vector 11_7" d="M901.35 40.0239L914.447 1.07203" stroke="white" stroke-width="2" />
        </g>
        <g id="Group 19" class="star">
            <path id="Vector 4_8" d="M809.579 75.9991V117.094" stroke="white" stroke-width="2" />
            <path id="Vector 5_8" d="M830.126 96.5466L789.032 96.5466" stroke="white" stroke-width="2" />
            <path id="Vector 6_8" d="M824.108 111.076L795.05 82.0176" stroke="white" stroke-width="2" />
            <path id="Vector 7_8" d="M824.108 82.0176L795.05 111.076" stroke="white" stroke-width="2" />
            <path id="Vector 8_8" d="M827.374 86.2731L791.784 106.82" stroke="white" stroke-width="2" />
            <path id="Vector 9_8" d="M827.374 106.821L791.784 86.2733" stroke="white" stroke-width="2" />
            <path id="Vector 10_8" d="M817.723 115.411L801.435 77.6825" stroke="white" stroke-width="2" />
            <path id="Vector 11_8" d="M803.031 116.023L816.128 77.0712" stroke="white" stroke-width="2" />
        </g>
        <g id="Group 301" class="star">
            <g id="Group 12">
                <path id="Vector 4_9" d="M1027.67 569.146V610.241" stroke="white" stroke-width="2" />
                <path id="Vector 5_9" d="M1048.21 589.694L1007.12 589.694" stroke="white" stroke-width="2" />
                <path id="Vector 6_9" d="M1042.2 604.223L1013.14 575.165" stroke="white" stroke-width="2" />
                <path id="Vector 7_9" d="M1042.2 575.165L1013.14 604.223" stroke="white" stroke-width="2" />
                <path id="Vector 8_9" d="M1045.46 579.42L1009.87 599.968" stroke="white" stroke-width="2" />
                <path id="Vector 9_9" d="M1045.46 599.968L1009.87 579.42" stroke="white" stroke-width="2" />
                <path id="Vector 10_9" d="M1035.81 608.559L1019.52 570.83" stroke="white" stroke-width="2" />
                <path id="Vector 11_9" d="M1021.12 609.17L1034.21 570.218" stroke="white" stroke-width="2" />
            </g>
        </g>
        <g id="Group 302">
            <g id="Group 15">
                <path id="Vector 4_10" d="M619.434 148.852V189.947" stroke="white" stroke-width="2" />
                <path id="Vector 5_10" d="M639.981 169.4L598.886 169.4" stroke="white" stroke-width="2" />
                <path id="Vector 6_10" d="M633.963 183.929L604.905 154.871" stroke="white" stroke-width="2" />
                <path id="Vector 7_10" d="M633.963 154.871L604.905 183.929" stroke="white" stroke-width="2" />
                <path id="Vector 8_10" d="M637.228 159.126L601.639 179.674" stroke="white" stroke-width="2" />
                <path id="Vector 9_10" d="M637.228 179.674L601.639 159.126" stroke="white" stroke-width="2" />
                <path id="Vector 10_10" d="M627.578 188.265L611.29 150.536" stroke="white" stroke-width="2" />
                <path id="Vector 11_10" d="M612.885 188.876L625.982 149.924" stroke="white" stroke-width="2" />
            </g>
        </g>
        <g id="Group 300" class="star">
            <g id="Group 17">
                <path id="Vector 4_11" d="M1165.67 140.261V181.356" stroke="white" stroke-width="2" />
                <path id="Vector 5_11" d="M1186.22 160.809L1145.12 160.809" stroke="white" stroke-width="2" />
                <path id="Vector 6_11" d="M1180.2 175.338L1151.14 146.28" stroke="white" stroke-width="2" />
                <path id="Vector 7_11" d="M1180.2 146.28L1151.14 175.338" stroke="white" stroke-width="2" />
                <path id="Vector 8_11" d="M1183.46 150.535L1147.88 171.083" stroke="white" stroke-width="2" />
                <path id="Vector 9_11" d="M1183.46 171.083L1147.88 150.535" stroke="white" stroke-width="2" />
                <path id="Vector 10_11" d="M1173.81 179.674L1157.53 141.945" stroke="white" stroke-width="2" />
                <path id="Vector 11_11" d="M1159.12 180.285L1172.22 141.333" stroke="white" stroke-width="2" />
            </g>

        </g>
        <circle id="Ellipse 26" cx="1137.62" cy="372.901" r="7.5" fill="white" class="bubble" />
        <circle id="Ellipse 27" cx="926.295" cy="110.996" r="7.5" fill="white" class="bubble" />
        <g id="Group 303">

            <circle id="Ellipse 28" cx="491.465" cy="745.042" r="7.5" fill="white" class="bubble" />
        </g>
        <circle id="Ellipse 29" cx="237.257" cy="357.901" r="7.5" fill="white" class="bubble" />
        <circle id="Ellipse 33" cx="48.4758" cy="77.071" r="7.5" fill="white" class="bubble" />
        <circle id="Ellipse 30" cx="451.291" cy="151.89" r="7.5" fill="white" class="bubble" />
        <circle id="Ellipse 31" cx="209.716" cy="536.636" r="7.5" fill="white" class="bubble" />
        <g id="Group 304" class="bubble">

            <circle id="Ellipse 32" cx="7.5" cy="755.984" r="7.5" fill="white" />
        </g>
        <path id="Ellipse 37"
            d="M1157.53 383.843C1258.73 438.342 1296.6 564.565 1242.1 665.77C1187.6 766.975 1061.38 804.839 960.17 750.34"
            stroke="white" stroke-width="0.65" stroke-dasharray="15 15" class="link" />
        <path id="Ellipse 38"
            d="M455.66 165.064C457.389 196.885 432.994 224.083 401.173 225.812C369.351 227.54 342.153 203.145 340.425 171.324"
            stroke="white" stroke-width="0.65" stroke-dasharray="15 15" class="link" />
    </g>
</svg>