<svg width="53" height="53" viewBox="0 0 53 53" fill="none" xmlns="http://www.w3.org/2000/svg">
<circle cx="26.4266" cy="28.991" r="20.9266" fill="#1D1B26" stroke="white"/>
<path fill-rule="evenodd" clip-rule="evenodd" d="M26.7694 46.7389V27.9463H26.0833V46.7389H26.7694Z" fill="white"/>
<path fill-rule="evenodd" clip-rule="evenodd" d="M26.7694 46.7389V27.9463H26.0833V46.7389H26.7694Z" fill="white"/>
<path fill-rule="evenodd" clip-rule="evenodd" d="M23.6158 46.297L29.9049 28.6291L29.2603 28.3882L22.9713 46.0561L23.6158 46.297Z" fill="white"/>
<path fill-rule="evenodd" clip-rule="evenodd" d="M20.8121 44.7622L32.5897 30.3748L32.0641 29.923L20.2864 44.3104L20.8121 44.7622Z" fill="white"/>
<path fill-rule="evenodd" clip-rule="evenodd" d="M18.6623 42.3569L34.5565 32.9606L34.2136 32.3517L18.3195 41.748L18.6623 42.3569Z" fill="white"/>
<path fill-rule="evenodd" clip-rule="evenodd" d="M17.4531 39.329L35.5198 36.0484L35.4001 35.3563L17.3333 38.6368L17.4531 39.329Z" fill="white"/>
<path fill-rule="evenodd" clip-rule="evenodd" d="M17.3333 36.0484L35.4001 39.329L35.5198 38.6368L17.4531 35.3563L17.3333 36.0484Z" fill="white"/>
<path fill-rule="evenodd" clip-rule="evenodd" d="M18.3195 32.9606L34.2136 42.3569L34.5565 41.748L18.6623 32.3517L18.3195 32.9606Z" fill="white"/>
<path fill-rule="evenodd" clip-rule="evenodd" d="M20.2864 30.3748L32.0641 44.7622L32.5897 44.3104L20.8121 29.923L20.2864 30.3748Z" fill="white"/>
<path fill-rule="evenodd" clip-rule="evenodd" d="M22.9713 28.6291L29.2603 46.297L29.9049 46.0561L23.6158 28.3882L22.9713 28.6291Z" fill="white"/>
</svg>
