<svg width="25" height="25" viewBox="0 0 81 81" fill="none" xmlns="http://www.w3.org/2000/svg">
<path d="M40.1 3C60.6 3 77.2 19.6 77.2 40.1C77.2 60.6 60.6 77.2 40.1 77.2C19.6 77.2 3 60.6 3 40.1C3 19.6 19.6 3 40.1 3ZM40.1 0C18 0 0 18 0 40.1C0 62.3 18 80.2 40.1 80.2C62.2 80.2 80.2 62.2 80.2 40.1C80.2 18 62.3 0 40.1 0Z" fill="white"/>
<path d="M40.1 18.8C51.9 18.8 61.4 28.4 61.4 40.1C61.4 51.8 51.8 61.4 40.1 61.4C28.4 61.4 18.8 51.8 18.8 40.1C18.8 28.4 28.4 18.8 40.1 18.8ZM40.1 15.8C26.7 15.8 15.8 26.7 15.8 40.1C15.8 53.5 26.7 64.4 40.1 64.4C53.5 64.4 64.4 53.5 64.4 40.1C64.4 26.7 53.5 15.8 40.1 15.8Z" fill="white"/>
<path d="M40.1 34.5C43.2 34.5 45.7 37 45.7 40.1C45.7 43.2 43.2 45.7 40.1 45.7C37 45.7 34.5 43.2 34.5 40.1C34.5 37 37 34.5 40.1 34.5ZM40.1 31.5C35.3 31.5 31.5 35.4 31.5 40.1C31.5 44.9 35.4 48.7 40.1 48.7C44.9 48.7 48.7 44.8 48.7 40.1C48.7 35.4 44.9 31.5 40.1 31.5Z" fill="white"/>
</svg>
