<svg width="101" height="101" viewBox="0 0 101 101" fill="none" xmlns="http://www.w3.org/2000/svg">
<path d="M23.1596 71.2359C15.6654 64.1287 11 54.1285 11 43.051C11 21.4837 28.6848 4 50.5 4C72.3152 4 90 21.4837 90 43.051C90 54.2845 85.2023 64.4101 77.5221 71.5344L50.5 98L23.1596 71.2359Z" fill="#1D1B26" stroke="white" stroke-width="2"/>
<path fill-rule="evenodd" clip-rule="evenodd" d="M50.7541 64V23H49.2451V64H50.7541Z" fill="white"/>
<path fill-rule="evenodd" clip-rule="evenodd" d="M50.7541 64V23H49.2451V64H50.7541Z" fill="white"/>
<path fill-rule="evenodd" clip-rule="evenodd" d="M43.8179 63.0358L57.6503 24.4897L56.2327 23.9642L42.4003 62.5103L43.8179 63.0358Z" fill="white"/>
<path fill-rule="evenodd" clip-rule="evenodd" d="M37.6512 59.6873L63.5555 28.2983L62.3994 27.3127L36.4951 58.7017L37.6512 59.6873Z" fill="white"/>
<path fill-rule="evenodd" clip-rule="evenodd" d="M32.9231 54.4398L67.8813 33.9398L67.1272 32.6113L32.1689 53.1113L32.9231 54.4398Z" fill="white"/>
<path fill-rule="evenodd" clip-rule="evenodd" d="M30.2633 47.8336L70 40.6765L69.7367 39.1664L30 46.3235L30.2633 47.8336Z" fill="white"/>
<path fill-rule="evenodd" clip-rule="evenodd" d="M30 40.6765L69.7367 47.8336L70 46.3235L30.2633 39.1664L30 40.6765Z" fill="white"/>
<path fill-rule="evenodd" clip-rule="evenodd" d="M32.1689 33.9398L67.1272 54.4398L67.8813 53.1113L32.9231 32.6113L32.1689 33.9398Z" fill="white"/>
<path fill-rule="evenodd" clip-rule="evenodd" d="M36.4951 28.2983L62.3994 59.6873L63.5555 58.7017L37.6512 27.3127L36.4951 28.2983Z" fill="white"/>
<path fill-rule="evenodd" clip-rule="evenodd" d="M42.4003 24.4897L56.2327 63.0358L57.6503 62.5103L43.8179 23.9642L42.4003 24.4897Z" fill="white"/>
</svg>
