<svg width="87" height="21" viewBox="0 0 87 21" fill="none" xmlns="http://www.w3.org/2000/svg">
<path d="M18.4407 1.39726H0V9.66845H4.47458V20.5159H13.8983V9.66845H18.4407V1.39726Z" fill="#1D1B26"/>
<path d="M76.5424 0.99054C70.7119 0.99054 66.3051 5.46512 66.3051 10.9566V11.0244C66.3051 16.516 70.6441 20.9905 76.4746 20.9905C82.3051 20.9905 86.7119 16.516 86.7119 11.0244V10.9566C86.7119 5.39732 82.3729 0.99054 76.5424 0.99054Z" fill="#1D1B26"/>
<path d="M32.2034 0.99054C26.3729 0.99054 21.9661 5.46512 21.9661 10.9566V11.0244C21.9661 16.516 26.3051 20.9905 32.1356 20.9905C37.9661 20.9905 42.3729 16.516 42.3729 11.0244V10.9566C42.3729 5.39732 38.0339 0.99054 32.2034 0.99054Z" fill="#1D1B26"/>
<path d="M52.0678 1.39726H46.4407V20.5837H52C58.9153 20.5837 62.8475 16.5159 62.8475 10.9566V10.8888C62.7797 5.32946 58.9153 1.39726 52.0678 1.39726Z" fill="#1D1B26"/>
</svg>
